<svg width="1200" height="571" viewBox="0 0 1200 571" fill="none" xmlns="http://www.w3.org/2000/svg">
<rect width="1200" height="571" fill="#F6643C" fill-opacity="0.8"/>
<mask id="mask0" mask-type="alpha" maskUnits="userSpaceOnUse" x="0" y="0" width="1200" height="571">
<rect width="1200" height="571" fill="#F6643C" fill-opacity="0.8"/>
</mask>
<g mask="url(#mask0)">
<path fill-rule="evenodd" clip-rule="evenodd" d="M-67 251.448C-57.7447 174.501 -21.872 102.328 35.6189 40.8961C92.817 -19.9501 182.172 -66.857 281.323 -73.0723C330.257 -76.3375 379.934 -70.8879 425.602 -58.2323C471.068 -45.6217 513.674 -27.2462 552.068 -5.6055C571.255 5.27115 589.202 17.1612 607.082 29.1638L654.732 65.2391L729.112 123.923C777.393 162.363 823.467 197.921 866.05 227.285C909.039 256.695 945.655 278.178 980.627 290.766C1015.28 304.503 1059.06 308.016 1116.93 293.469C1145.67 286.848 1175.64 274.755 1207.62 261.649C1239.41 248.228 1272.43 232.217 1308.52 216.341C1304.18 255.029 1296.32 293.559 1281.39 329.567C1267.05 366.07 1248.15 401.785 1221.74 435.09C1208.23 451.304 1193.75 467.608 1176.86 482.65C1159.97 497.333 1141.25 511.272 1120.58 523.5C1079.35 547.392 1030.44 564.844 980.266 571.06C930.094 577.365 879.719 574.212 833.848 564.484C787.729 555.026 745.709 539.781 707.134 522.171C630.254 486.411 565.94 441.463 509.08 393.881C480.526 370.123 453.751 345.307 428.394 320.109L398.444 290.046C389.414 281.331 380.294 272.571 371.264 264.554C334.873 232.375 301.095 207.784 263.893 192.449C226.962 176.393 179.695 169.795 121.709 180.649C63.9477 191.39 0.579366 216.364 -67 251.448" fill="#F6643C"/>
<path fill-rule="evenodd" clip-rule="evenodd" d="M-66.999 251.448C-47.2278 252.123 -30.474 255.321 -13.9904 260.703C2.11066 265.477 17.1083 271.535 31.2277 278.043C59.6466 291.509 84.7102 306.709 109.008 323.103C154.707 353.683 196.6 388.719 238.698 423.927C240.993 425.846 243.289 427.766 245.586 429.685C256.667 438.369 267.632 447.945 278.624 457.545C289.722 467.238 300.849 476.955 312.152 485.802L345.547 515.055C357.505 525.166 366.197 532.372 382.388 545.072C441.027 591.034 507.188 632.671 583.753 664.355C660.024 695.589 749.672 716.351 843.914 709.979C938.111 704.394 1030.64 667.26 1098.02 613.98C1166.7 561.128 1213.81 495.868 1247.68 428.965C1280.74 361.25 1301.9 291.126 1308.53 216.341C1304.18 255.029 1296.32 293.559 1281.39 329.567C1267.05 366.07 1248.15 401.785 1221.74 435.09C1208.23 451.304 1193.75 467.608 1176.86 482.65C1159.97 497.333 1141.25 511.272 1120.58 523.5C1079.35 547.392 1030.44 564.844 980.266 571.06C930.094 577.365 879.719 574.212 833.848 564.484C787.729 555.026 745.709 539.781 707.134 522.171C630.254 486.411 565.94 441.463 509.08 393.881C480.526 370.123 453.751 345.307 428.394 320.109L398.444 290.046C389.414 281.331 380.294 272.571 371.264 264.554C334.873 232.375 301.095 207.784 263.893 192.449C226.962 176.393 179.695 169.795 121.709 180.649C63.948 191.39 0.579971 216.364 -66.999 251.448ZM-66.9999 251.448C-66.9999 251.448 -67 251.448 -67 251.448C-67 251.448 -67 251.448 -66.9999 251.448C-66.9999 251.448 -66.9999 251.448 -66.9999 251.448Z" fill="#F6643C" fill-opacity="0.65"/>
</g>
</svg>
